<svg width="100" height="100" viewBox="0 0 100 100" fill="none" xmlns="http://www.w3.org/2000/svg">
<g clip-path="url(#clip0_754_29)">
<path d="M68.7944 -0.42419C68.9321 -0.355402 68.9964 -0.279604 69.0896 -0.157161C69.1236 -0.112988 69.1576 -0.0688144 69.1926 -0.0233025C69.2284 0.0244565 69.2641 0.0722155 69.3009 0.121422C69.3572 0.195206 69.3572 0.195206 69.4146 0.27048C69.6509 0.582086 69.8806 0.897916 70.1055 1.21795C70.3317 1.53831 70.5694 1.84947 70.8079 2.16077C71.1575 2.61714 71.502 3.07672 71.8421 3.54025C72.0604 3.83781 72.2804 4.13395 72.5024 4.42879C72.7597 4.77067 73.014 5.11467 73.2671 5.45971C73.5677 5.86919 73.8731 6.27467 74.1818 6.67807C74.6642 7.30856 75.135 7.94705 75.6039 8.5875C76.0047 9.13451 76.409 9.67834 76.821 10.2169C77.3033 10.8474 77.7741 11.4859 78.2431 12.1264C78.6438 12.6734 79.0481 13.2172 79.4601 13.7558C79.9425 14.3863 80.4133 15.0248 80.8822 15.6652C81.283 16.2122 81.6873 16.7561 82.0993 17.2947C82.5816 17.9252 83.0524 18.5636 83.5214 19.2041C83.9617 19.805 84.4075 20.401 84.8602 20.9926C85.1638 21.39 85.4619 21.7911 85.7577 22.1944C85.976 22.4919 86.196 22.788 86.4179 23.0828C86.7928 23.581 87.1624 24.0832 87.5314 24.5857C87.6138 24.703 87.6138 24.703 87.7115 24.7972C87.8379 25.0104 87.822 25.2189 87.8198 25.4597C87.8201 25.5128 87.8203 25.5659 87.8205 25.6207C87.8211 25.8003 87.8203 25.9799 87.8196 26.1595C87.8198 26.2895 87.82 26.4195 87.8202 26.5495C87.8208 26.9093 87.8202 27.2691 87.8195 27.6289C87.8189 27.9791 87.8192 28.3293 87.8195 28.6796C87.82 29.4049 87.8197 30.1303 87.8189 30.8557C87.8181 31.591 87.8177 32.3264 87.8178 33.0618C87.8178 33.1314 87.8178 33.1314 87.8178 33.2024C87.8179 33.439 87.8179 33.6755 87.818 33.9121C87.8182 35.6257 87.8176 37.3392 87.8165 39.0528C87.8154 40.7502 87.8147 42.4475 87.8146 44.1449C87.8145 44.1975 87.8145 44.2502 87.8145 44.3045C87.8145 44.7857 87.8144 45.2669 87.8144 45.748C87.8143 46.9443 87.8141 48.1405 87.8139 49.3367C87.8139 49.3912 87.8139 49.4457 87.8139 49.5018C87.8134 52.1528 87.8122 54.8038 87.8111 57.4548C87.8106 58.375 87.8102 59.2951 87.8098 60.2152C87.8098 60.2723 87.8098 60.3294 87.8098 60.3882C87.8086 63.0399 87.808 65.6917 87.8074 68.3435C87.8074 68.517 87.8073 68.6905 87.8073 68.8639C87.8069 70.6717 87.8066 72.4795 87.8062 74.2873C87.8062 74.3389 87.8062 74.3906 87.8062 74.4438C87.8062 74.5378 87.8061 74.6317 87.8061 74.7257C87.8044 83.4831 87.8008 92.2405 87.7975 100.998C62.9762 100.998 38.155 100.998 12.5815 100.998C12.5815 75.9589 12.5815 50.9199 12.5815 25.1222C13.6335 24.6313 13.6335 24.6313 14.0333 24.4457C14.0809 24.4237 14.1284 24.4016 14.1775 24.3788C15.8569 23.5996 17.5373 22.8234 19.2309 22.0752C20.0199 21.7263 20.8029 21.3652 21.5848 21.0007C22.355 20.6418 23.1288 20.2923 23.9062 19.9495C24.5339 19.6725 25.1571 19.3875 25.7773 19.0941C26.4418 18.7797 27.1103 18.476 27.7829 18.1794C28.5681 17.8332 29.3482 17.4773 30.1259 17.1147C30.9481 16.7314 31.7734 16.3567 32.6034 15.9908C33.2312 15.7138 33.8544 15.4288 34.4745 15.1354C35.139 14.8209 35.8075 14.5172 36.4801 14.2207C37.2653 13.8745 38.0454 13.5186 38.8231 13.156C39.6453 12.7727 40.4706 12.398 41.3007 12.032C41.9284 11.7551 42.5516 11.4701 43.1718 11.1766C43.8363 10.8622 44.5047 10.5585 45.1774 10.2619C45.9625 9.91575 46.7426 9.55984 47.5204 9.19727C48.3425 8.81398 49.1678 8.43925 49.9979 8.0733C50.6256 7.79635 51.2488 7.51134 51.869 7.2179C52.5335 6.90348 53.2019 6.59976 53.8746 6.30319C54.6598 5.95702 55.4398 5.60111 56.2176 5.23853C57.0398 4.85524 57.8651 4.48052 58.6951 4.11457C59.3228 3.83761 59.946 3.55261 60.5662 3.25917C61.2307 2.94475 61.8991 2.64103 62.5718 2.34446C63.409 1.97535 64.2401 1.59438 65.0693 1.20776C65.9185 0.812047 66.772 0.426979 67.6294 0.0493744C67.6723 0.0304627 67.7152 0.0115509 67.7594 -0.00793391C67.8384 -0.0427453 67.9174 -0.0774734 67.9965 -0.112095C68.1672 -0.187228 68.3315 -0.265037 68.495 -0.355145C68.6636 -0.429652 68.6636 -0.429652 68.7944 -0.42419Z" fill="#2B55A4"/>
<path d="M29.2559 33.2798C35.7482 33.2798 42.2405 33.2798 48.9296 33.2798C49.4694 36.8786 49.4694 36.8786 49.5894 37.8983C49.6548 38.2737 49.6548 38.2737 49.7225 38.6486C49.8029 39.0997 49.8614 39.5544 49.923 40.0084C49.9614 40.291 50.0004 40.5736 50.0394 40.8561C50.0471 40.9115 50.0547 40.9668 50.0626 41.0238C50.1364 41.5542 50.2169 42.0834 50.3021 42.6121C50.3155 42.6966 50.3155 42.6966 50.3293 42.7828C50.337 42.8304 50.3448 42.8781 50.3528 42.9272C50.3691 43.0567 50.3691 43.0567 50.3691 43.2966C50.2754 43.3381 50.2754 43.3381 50.1798 43.3805C49.2833 43.7853 48.4693 44.2621 47.7299 44.9161C47.6996 44.9422 47.6693 44.9683 47.638 44.9951C46.8284 45.6926 46.201 46.498 45.6906 47.4353C45.6693 47.4743 45.6479 47.5134 45.6259 47.5536C45.2354 48.2778 44.9721 49.0172 44.7759 49.8157C44.7661 49.8549 44.7563 49.894 44.7462 49.9343C44.2219 52.1928 44.7406 54.655 45.9305 56.6123C46.2922 57.1853 46.7206 57.6854 47.1901 58.1718C47.2374 58.2229 47.2848 58.274 47.3335 58.3267C48.8148 59.884 50.8571 60.6649 52.9483 60.9309C52.9759 61.1021 53.0034 61.2733 53.0308 61.4445C53.0421 61.5147 53.0421 61.5147 53.0537 61.5864C53.1014 61.8858 53.1439 62.1856 53.1833 62.4862C53.2493 62.9878 53.3247 63.4877 53.4007 63.9878C53.6144 65.3947 53.6144 65.3947 53.698 66.0293C53.78 66.6503 53.8743 67.2694 53.968 67.8887C54.0688 68.5556 54.1685 69.2223 54.2567 69.8911C54.3484 70.576 54.4546 71.259 54.5584 71.9422C54.6358 72.4525 54.7092 72.9629 54.7762 73.4746C54.8328 73.8919 54.8969 74.3081 54.9602 74.7244C55.1739 76.1312 55.1739 76.1312 55.2575 76.7659C55.3395 77.3869 55.4338 78.0059 55.5275 78.6253C55.6283 79.2922 55.728 79.9589 55.8162 80.6276C55.9079 81.3126 56.0141 81.9956 56.1179 82.6788C56.1835 83.1117 56.2484 83.5446 56.3051 83.9788C56.387 84.6048 56.4832 85.2287 56.5771 85.853C56.6816 86.5475 56.7858 87.2418 56.8767 87.9383C56.9328 88.3528 56.9967 88.7662 57.0595 89.1798C57.17 89.9073 57.2797 90.6347 57.3757 91.3643C57.4245 91.7294 57.4782 92.0935 57.5333 92.4576C57.5412 92.51 57.5491 92.5623 57.5573 92.6162C57.597 92.8791 57.6371 93.142 57.6774 93.4048C57.7482 93.8693 57.8148 94.3331 57.8665 94.8002C57.9084 95.1777 57.9679 95.5492 58.0366 95.9227C58.1253 96.4106 58.1906 96.9015 58.2569 97.3929C58.384 98.3332 58.5205 99.2712 58.6781 100.207C58.6956 100.312 58.6956 100.312 58.7135 100.419C58.7237 100.479 58.734 100.539 58.7446 100.601C58.7664 100.758 58.7664 100.758 58.7664 100.998C52.2543 100.998 45.7422 100.998 39.0327 100.998C38.9733 100.464 38.9733 100.464 38.9128 99.9185C38.8852 99.7096 38.857 99.5013 38.8261 99.2929C38.8182 99.239 38.8104 99.1851 38.8023 99.1296C38.7768 98.9551 38.7511 98.7808 38.7253 98.6064C38.707 98.4815 38.6887 98.3565 38.6704 98.2316C38.5225 97.2251 38.3666 96.2198 38.2104 95.2146C38.0837 94.3977 37.9643 93.5812 37.8627 92.7607C37.7401 91.7789 37.5912 90.8007 37.4471 89.8219C37.3669 89.2768 37.2881 88.7315 37.2096 88.1861C37.1588 87.8333 37.108 87.4804 37.0571 87.1276C37.0507 87.0834 37.0444 87.0393 37.0378 86.9938C36.862 85.7752 36.6807 84.5578 36.491 83.3413C36.3574 82.4841 36.2302 81.6275 36.1235 80.7665C36.0375 80.0777 35.9391 79.3909 35.8388 78.704C35.8299 78.6435 35.8211 78.583 35.812 78.5207C35.6578 77.4664 35.4949 76.4136 35.3313 75.3607C35.2047 74.5446 35.0854 73.7289 34.9839 72.9093C34.8979 72.2204 34.7994 71.5335 34.6991 70.8465C34.6903 70.786 34.6815 70.7255 34.6724 70.6632C34.5181 69.609 34.3553 68.5561 34.1917 67.5032C34.0651 66.6872 33.9458 65.8714 33.8443 65.0518C33.7582 64.3629 33.6598 63.676 33.5595 62.989C33.5507 62.9285 33.5418 62.8681 33.5327 62.8057C33.3785 61.7517 33.2158 60.699 33.0521 59.6463C32.9233 58.817 32.803 57.988 32.701 57.1549C32.6259 56.5518 32.5317 55.9526 32.4348 55.3527C32.3257 54.6765 32.2231 54.0007 32.1387 53.3209C32.0418 52.5434 31.9332 51.7681 31.82 50.9929C31.8112 50.9325 31.8024 50.872 31.7933 50.8098C31.6391 49.7555 31.4762 48.7025 31.3126 47.6496C31.186 46.8335 31.0667 46.0178 30.9652 45.1982C30.8792 44.5093 30.7807 43.8223 30.6804 43.1354C30.6716 43.0749 30.6627 43.0144 30.6537 42.9521C30.4994 41.8978 30.3366 40.8449 30.1729 39.7921C30.0467 38.978 29.927 38.1643 29.8265 37.3465C29.718 36.4726 29.5867 35.6019 29.4582 34.7307C29.4492 34.6701 29.4403 34.6095 29.4311 34.5471C29.4143 34.4332 29.3974 34.3193 29.3805 34.2055C29.3729 34.1538 29.3653 34.1021 29.3574 34.0489C29.3508 34.0044 29.3442 33.9599 29.3374 33.9141C29.3079 33.703 29.2823 33.4913 29.2559 33.2798Z" fill="#F9C23B"/>
<path d="M52.1694 33.28C56.6889 33.2261 60.928 34.1674 64.7054 36.7589C64.7443 36.7853 64.7831 36.8117 64.8231 36.839C65.6314 37.3913 66.3846 38.0159 67.1047 38.6783C67.2058 38.7683 67.3071 38.8583 67.4083 38.9482C67.8568 39.3524 68.273 39.7782 68.6642 40.2378C68.7121 40.2924 68.76 40.347 68.8094 40.4032C70.5747 42.4281 71.8345 44.796 72.5629 47.3755C72.5793 47.4328 72.5958 47.49 72.6127 47.549C72.7084 47.889 72.7851 48.2263 72.8403 48.5751C72.8476 48.6181 72.8549 48.6611 72.8623 48.7054C72.8846 48.8417 72.9043 48.9781 72.9228 49.1149C72.9288 49.1594 72.9348 49.2038 72.941 49.2496C73.0026 49.7995 72.9918 50.3534 72.9906 50.9059C72.9903 51.082 72.9906 51.2581 72.991 51.4342C72.9915 52.37 72.9389 53.2593 72.7541 54.1796C72.7392 54.2569 72.7243 54.3343 72.709 54.414C72.0186 57.9221 70.281 61.1141 67.9594 63.8065C67.9283 63.8426 67.8972 63.8788 67.8651 63.916C67.6725 64.1369 67.4718 64.3464 67.262 64.5511C67.1599 64.6548 67.0666 64.7632 66.9734 64.8749C66.7111 65.179 66.4123 65.4427 66.1136 65.7099C66.0334 65.7821 65.954 65.8553 65.8748 65.9285C65.4988 66.2748 65.1036 66.5915 64.6984 66.9025C64.6233 66.9602 64.5483 67.0181 64.4735 67.0762C59.7913 70.708 59.7913 70.708 57.7476 70.708C57.7362 70.6305 57.7247 70.5529 57.7129 70.473C57.6596 70.1128 57.6062 69.7525 57.5527 69.3922C57.5431 69.3276 57.5335 69.2629 57.5236 69.1964C57.4077 68.4164 57.2916 67.6366 57.1624 66.8587C57.1146 66.5683 57.0724 66.2778 57.0342 65.986C56.9522 65.3621 56.8584 64.74 56.7655 64.1176C56.7467 63.9915 56.728 63.8654 56.7092 63.7394C56.6029 63.0263 56.4953 62.3136 56.3721 61.6033C56.3202 61.2943 56.299 61.0046 56.3081 60.6912C56.5382 60.6042 56.7679 60.5182 57.0005 60.4382C59.4737 59.5687 61.2822 57.8324 62.4198 55.4926C62.7169 54.867 62.8873 54.2287 63.026 53.5535C63.0368 53.5054 63.0476 53.4573 63.0587 53.4077C63.1582 52.9297 63.1673 52.4584 63.1647 51.9715C63.1646 51.9294 63.1644 51.8873 63.1643 51.8439C63.1546 49.6196 62.4736 47.5598 60.9866 45.876C60.9361 45.8175 60.8856 45.7591 60.8336 45.6988C59.919 44.6564 58.7839 43.893 57.5077 43.3568C57.4475 43.33 57.3873 43.3031 57.3252 43.2755C56.3553 42.8677 55.2871 42.7011 54.2425 42.6633C54.1758 42.6607 54.109 42.6581 54.0402 42.6554C53.8765 42.6491 53.7127 42.643 53.549 42.637C53.4389 41.975 53.3432 41.3119 53.2566 40.6464C53.1657 39.9521 53.0633 39.2603 52.9533 38.5688C52.8356 37.8275 52.7253 37.0852 52.6155 36.3428C52.4933 35.5162 52.3703 34.6899 52.2334 33.8655C52.2247 33.813 52.2161 33.7605 52.2072 33.7064C52.1998 33.6625 52.1924 33.6186 52.1848 33.5733C52.1694 33.46 52.1694 33.46 52.1694 33.28Z" fill="#F9C23B"/>
</g>
<defs>
<clipPath id="clip0_754_29">
<rect width="100" height="100" fill="white"/>
</clipPath>
</defs>
</svg>
